<svg xmlns="http://www.w3.org/2000/svg" width="159" height="74" viewBox="0 0 159 74" fill="none">
    <path d="M45.0603 45.3193V30.0186H47.6211V36.4577H54.8677V30.0186H57.4178V45.3193H54.8677V38.859H47.6211V45.3193H45.0603ZM65.6139 45.6381C64.4522 45.6381 63.4321 45.3866 62.5538 44.8837C61.6754 44.3807 60.9883 43.683 60.4924 42.7905C60.0036 41.8979 59.7592 40.8708 59.7592 39.7091C59.7592 38.4552 60.0001 37.3679 60.4818 36.447C60.9635 35.5191 61.6329 34.8001 62.49 34.29C63.3471 33.78 64.3388 33.525 65.4651 33.525C66.6552 33.525 67.6646 33.8048 68.4934 34.3644C69.3293 34.917 69.9491 35.6997 70.3529 36.7127C70.7567 37.7256 70.909 38.9192 70.8098 40.2935H68.2703V39.3584C68.2632 38.1117 68.0436 37.2014 67.6115 36.6277C67.1794 36.0539 66.4994 35.767 65.5714 35.767C64.523 35.767 63.7438 36.0928 63.2338 36.7445C62.7238 37.3892 62.4687 38.3348 62.4687 39.5816C62.4687 40.7433 62.7238 41.6429 63.2338 42.2804C63.7438 42.918 64.4876 43.2367 65.4651 43.2367C66.0956 43.2367 66.6375 43.0986 67.0909 42.8223C67.5513 42.539 67.9055 42.1317 68.1534 41.6004L70.6823 42.3654C70.2431 43.3997 69.5631 44.2037 68.6422 44.7774C67.7284 45.3512 66.719 45.6381 65.6139 45.6381ZM61.6612 40.2935V38.3596H69.556V40.2935H61.6612ZM76.182 45.6381C75.3532 45.6381 74.6519 45.4823 74.0781 45.1706C73.5043 44.8518 73.0687 44.4303 72.7712 43.9061C72.4808 43.3819 72.3355 42.8046 72.3355 42.1742C72.3355 41.6217 72.4276 41.1258 72.6118 40.6866C72.796 40.2403 73.0793 39.8578 73.4618 39.5391C73.8444 39.2132 74.3402 38.9476 74.9494 38.7421C75.4099 38.5934 75.9482 38.4588 76.5645 38.3384C77.1879 38.2179 77.8608 38.1081 78.5833 38.009C79.313 37.9027 80.0745 37.7894 80.8678 37.669L79.954 38.1896C79.9611 37.3962 79.784 36.8118 79.4228 36.4364C79.0615 36.061 78.4523 35.8732 77.5952 35.8732C77.0781 35.8732 76.5787 35.9937 76.097 36.2345C75.6153 36.4754 75.2788 36.8898 75.0876 37.4777L72.7499 36.7445C73.0333 35.7741 73.5716 34.9949 74.365 34.4069C75.1655 33.819 76.2422 33.525 77.5952 33.525C78.6152 33.525 79.5113 33.6915 80.2834 34.0244C81.0626 34.3573 81.64 34.9028 82.0154 35.6607C82.2208 36.0645 82.3448 36.4789 82.3873 36.9039C82.4298 37.3219 82.451 37.7788 82.451 38.2746V45.3193H80.2091V42.833L80.5809 43.2367C80.0638 44.0655 79.4582 44.6747 78.764 45.0643C78.0769 45.4468 77.2162 45.6381 76.182 45.6381ZM76.692 43.598C77.2729 43.598 77.7687 43.4953 78.1796 43.2899C78.5904 43.0844 78.9163 42.833 79.1571 42.5354C79.4051 42.2379 79.5715 41.9581 79.6565 41.696C79.7911 41.3702 79.8655 40.9983 79.8797 40.5804C79.9009 40.1553 79.9115 39.8118 79.9115 39.5497L80.6978 39.7834C79.9257 39.9039 79.2634 40.0101 78.7109 40.1022C78.1583 40.1943 77.6837 40.2828 77.287 40.3678C76.8903 40.4458 76.5397 40.5343 76.2351 40.6335C75.9376 40.7397 75.6861 40.8637 75.4807 41.0054C75.2753 41.147 75.1159 41.31 75.0025 41.4941C74.8963 41.6783 74.8432 41.8944 74.8432 42.1423C74.8432 42.4257 74.914 42.6771 75.0557 42.8967C75.1973 43.1092 75.4028 43.2792 75.672 43.4067C75.9482 43.5342 76.2882 43.598 76.692 43.598ZM85.4298 45.3193V29.6998H87.9906V45.3193H85.4298ZM97.8994 45.3193C97.1414 45.461 96.3976 45.5212 95.668 45.5C94.9455 45.4858 94.2973 45.3548 93.7236 45.1068C93.1498 44.8518 92.7141 44.4516 92.4166 43.9061C92.1545 43.4103 92.0164 42.9038 92.0022 42.3867C91.988 41.8696 91.981 41.2852 91.981 40.6335V30.6561H94.5311V40.4847C94.5311 40.9452 94.5346 41.3489 94.5417 41.696C94.5559 42.0431 94.6303 42.3265 94.7649 42.5461C95.0199 42.9711 95.4272 43.2084 95.9868 43.258C96.5464 43.3076 97.1839 43.2792 97.8994 43.173V45.3193ZM89.8984 35.852V33.8438H97.8994V35.852H89.8984ZM108.304 45.3193V39.7941C108.304 39.4328 108.279 39.0326 108.23 38.5934C108.18 38.1542 108.063 37.7327 107.879 37.3289C107.702 36.9181 107.433 36.5816 107.072 36.3195C106.718 36.0574 106.236 35.9264 105.627 35.9264C105.301 35.9264 104.978 35.9795 104.66 36.0858C104.341 36.192 104.051 36.3762 103.788 36.6383C103.533 36.8933 103.328 37.2475 103.172 37.7008C103.016 38.1471 102.938 38.7209 102.938 39.4222L101.419 38.774C101.419 37.7965 101.607 36.911 101.982 36.1176C102.365 35.3243 102.924 34.6938 103.661 34.2263C104.398 33.7517 105.304 33.5144 106.381 33.5144C107.231 33.5144 107.932 33.6561 108.485 33.9394C109.037 34.2228 109.477 34.584 109.802 35.0232C110.128 35.4624 110.369 35.9299 110.525 36.4258C110.681 36.9216 110.78 37.3927 110.823 37.839C110.872 38.2782 110.897 38.6359 110.897 38.9121V45.3193H108.304ZM100.346 45.3193V30.0186H102.63V38.0727H102.938V45.3193H100.346Z" fill="#0ACF83"/>
    <path d="M113.67 45.3193V30.0186H116.23V36.4577H123.477V30.0186H126.027V45.3193H123.477V38.859H116.23V45.3193H113.67ZM129.219 32.1012V29.7529H131.779V32.1012H129.219ZM129.219 45.3193V33.8438H131.779V45.3193H129.219ZM138.065 45.3193L133.9 33.8438H136.46L139.351 42.1636L142.23 33.8438H144.801L140.636 45.3193H138.065ZM151.51 45.6381C150.349 45.6381 149.329 45.3866 148.45 44.8837C147.572 44.3807 146.885 43.683 146.389 42.7905C145.9 41.8979 145.656 40.8708 145.656 39.7091C145.656 38.4552 145.897 37.3679 146.378 36.447C146.86 35.5191 147.529 34.8001 148.387 34.29C149.244 33.78 150.235 33.525 151.362 33.525C152.552 33.525 153.561 33.8048 154.39 34.3644C155.226 34.917 155.846 35.6997 156.249 36.7127C156.653 37.7256 156.805 38.9192 156.706 40.2935H154.167V39.3584C154.16 38.1117 153.94 37.2014 153.508 36.6277C153.076 36.0539 152.396 35.767 151.468 35.767C150.42 35.767 149.64 36.0928 149.13 36.7445C148.62 37.3892 148.365 38.3348 148.365 39.5816C148.365 40.7433 148.62 41.6429 149.13 42.2804C149.64 42.918 150.384 43.2367 151.362 43.2367C151.992 43.2367 152.534 43.0986 152.987 42.8223C153.448 42.539 153.802 42.1317 154.05 41.6004L156.579 42.3654C156.14 43.3997 155.46 44.2037 154.539 44.7774C153.625 45.3512 152.615 45.6381 151.51 45.6381ZM147.558 40.2935V38.3596H155.453V40.2935H147.558Z" fill="white"/>
    <path d="M60.0634 25.991C61.0404 25.5464 61.4779 24.39 60.9659 23.4467C58.3332 18.5961 54.3012 14.6293 49.3745 12.0771C43.8709 9.22602 37.5694 8.30535 31.4801 9.46263C25.3909 10.6199 19.8665 13.7881 15.7925 18.4594C11.7186 23.1307 9.33093 29.0345 9.01235 35.2246C8.69377 41.4146 10.4627 47.5324 14.0356 52.5973C17.6085 57.6621 22.7784 61.3807 28.7167 63.157C34.655 64.9333 41.0177 64.6644 46.7849 62.3934C51.9476 60.3605 56.3655 56.8285 59.4823 52.2739C60.0884 51.3881 59.7719 50.1929 58.8458 49.6504C57.9196 49.1079 56.7354 49.4243 56.1192 50.3031C53.4497 54.1097 49.7132 57.063 45.3608 58.7768C40.4037 60.7288 34.9347 60.9599 29.8306 59.4332C24.7265 57.9064 20.2827 54.7101 17.2117 50.3567C14.1407 46.0033 12.6203 40.7449 12.8941 35.4244C13.1679 30.1038 15.2202 25.0293 18.7219 21.0142C22.2236 16.9991 26.972 14.2759 32.2059 13.2812C37.4398 12.2864 42.8561 13.0778 47.5866 15.5284C51.7401 17.68 55.1536 21.0013 57.4182 25.0618C57.941 25.9992 59.0865 26.4355 60.0634 25.991Z" fill="#0ACF83"/>
    <path d="M22.7705 37.1475H34.5249" stroke="#0ACF83" stroke-width="3.18766" stroke-linecap="round" stroke-linejoin="round"/>
    <path d="M28.647 31.2695V43.0239" stroke="#0ACF83" stroke-width="3.18766" stroke-linecap="round" stroke-linejoin="round"/>
</svg>