<svg width="14" height="8" viewBox="0 0 14 8" fill="none" xmlns="http://www.w3.org/2000/svg">
    <path d="M13.9542 0.389887C13.9055 0.274035 13.8236 0.175189 13.7188 0.105807C13.614 0.0364246 13.4911 -0.000390012 13.3654 3.11595e-06H0.634494C0.508824 -0.000390012 0.385849 0.0364246 0.281068 0.105807C0.176286 0.175189 0.0943865 0.274035 0.0456898 0.389887C-0.00017036 0.507463 -0.0118045 0.635621 0.0121332 0.759534C0.0360709 0.883447 0.0946022 0.99805 0.180956 1.09009L6.5464 7.45553C6.66807 7.57318 6.83069 7.63894 6.99994 7.63894C7.16918 7.63894 7.33181 7.57318 7.45348 7.45553L13.8189 1.09009C13.9053 0.99805 13.9638 0.883447 13.9877 0.759534C14.0117 0.635621 14 0.507463 13.9542 0.389887Z" fill="white"/>
</svg>
