<svg width="19" height="14" viewBox="0 0 19 14" fill="none" xmlns="http://www.w3.org/2000/svg">
    <path d="M7 13.25H5.125C3.96468 13.25 2.85188 12.7891 2.03141 11.9686C1.21094 11.1481 0.75 10.0353 0.75 8.875C0.75 7.71468 1.21094 6.60188 2.03141 5.78141C2.85188 4.96094 3.96468 4.5 5.125 4.5C5.49104 4.49986 5.85572 4.54446 6.21094 4.63281" stroke="#0ACF83" stroke-width="1.5" stroke-linecap="round" stroke-linejoin="round"/>
    <path d="M5.75 7C5.75 6.00968 5.98533 5.03353 6.4366 4.152C6.88788 3.27047 7.54217 2.50879 8.34556 1.92974C9.14895 1.35068 10.0784 0.970832 11.0574 0.821482C12.0364 0.672133 13.0369 0.757562 13.9764 1.07073C14.9159 1.3839 15.7676 1.91584 16.4612 2.62272C17.1547 3.3296 17.6704 4.19118 17.9657 5.13645C18.261 6.08173 18.3274 7.08365 18.1595 8.05964C17.9916 9.03562 17.5942 9.95774 17 10.75" stroke="#0ACF83" stroke-width="1.5" stroke-linecap="round" stroke-linejoin="round"/>
    <path d="M8.72656 9.64844L11.375 7L14.0234 9.64844" stroke="#0ACF83" stroke-width="1.5" stroke-linecap="round" stroke-linejoin="round"/>
    <path d="M11.375 13.25V7" stroke="#0ACF83" stroke-width="1.5" stroke-linecap="round" stroke-linejoin="round"/>
</svg>
